<?xml version="1.0" encoding="utf-8"?>
<svg xmlns="http://www.w3.org/2000/svg"
	xmlns:xlink="http://www.w3.org/1999/xlink"
	width="150px" height="150px" viewBox="0 0 150 150">
<clipPath id="clip0"><circle cx="75.00" cy="75.00" r="75.00"/></clipPath><circle cx="75.00" cy="75.00" r="75.00" fill="rgb(255,255,255)"/><g><circle cx="75.00" cy="75.00" r="75.00" fill="rgb(255,255,255)"/><path fillRule="evenodd" d="M 69.89 10.41C 64.43 10.41 65.27 12.86 62.33 13.28 59.39 13.7 62.92 12.1 54.11 13.78 45.29 15.46 42.18 26.83 41.76 31.04 41.34 35.25 41.23 47.09 41.51 53.41 42.35 57.19 39.41 57.19 39.41 57.19 34.13 56.85 36.51 73.36 36.51 73.36 37.26 77.43 36.23 79.46 44.05 82.61 47.78 93.26 57.51 98.89 57.51 98.89 57.51 98.89 57.56 105.46 57.71 110.32 56.91 109.92 60.43 122.74 36.13 126.34 11.83 129.94 7.18 137.83 2.6 142.22-1.98 146.62-1.81 167.92-1.81 167.92-1.81 167.92 155.02 168.01 155.02 168.01 155.02 168.01 153.85 146.62 149.27 142.22 144.69 137.83 139.7 129.94 115.4 126.34 91.78 122.91 95.66 110.27 95.49 109.51 95.54 107.6 95.79 99.47 95.79 99.47 95.79 99.47 104.04 92.94 107.77 82.29 113.63 78.58 115.86 78.06 116.83 73.79 116.83 73.79 118.56 57.11 113.02 57.19 113.02 57.19 110.4 58.04 111.24 54.25 112.08 50.46 111.8 38.62 111.38 34.41 110.96 30.2 111.59 18.17 102.77 16.48 96.76 15.36 95.97 16.47 93.03 16.05 90.09 15.63 86.59 7.99 81.14 7.99 81.14 7.99 69.89 10.41 69.89 10.41Z" fill="rgb(91,75,89)" clip-path="url(#clip0)"/></g></svg>